# xmcd
#
# Track frame offsets: 
#        150
#        26667
#        47504
#        65054
#        86155
#        117607
#        138441
#        152955
#        178346
#        198445
#        220033
#        257042
#        284157
#
# Disc length: 4024 seconds
#
# Revision: 0
# Processed by: cddbd v1.5.2PL0 Copyright (c) Steve Scherf et al.
# Submitted via: ExactAudioCopy v1.0b6
#
DISCID=d10fb60d
DTITLE=石田長生 - The Best of Ishiyan  DISC2
DYEAR=2016
DGENRE=Blues
TTITLE0=3Q
TTITLE1=真夜中の歌姫
TTITLE2=リクエストNo.1
TTITLE3=That Lucky Old Sun
TTITLE4=Round About Midnight
TTITLE5=Bonin の島
TTITLE6=パラオの5丁目
TTITLE7=HELP!
TTITLE8=ねぇ、神様
TTITLE9=マザーズ・ソング
TTITLE10=Happiness *未発表音源
TTITLE11=Boat Club Road(feat. 忌野清志郎)
TTITLE12=ニッポン Char、Char、Char *未発表音源
EXTD=
EXTT0=
EXTT1=
EXTT2=
EXTT3=
EXTT4=
EXTT5=
EXTT6=
EXTT7=
EXTT8=
EXTT9=
EXTT10=
EXTT11=
EXTT12=
PLAYORDER=
